<?xml version="1.0" standalone="no"?>
<svg width="1500" height="1000" version="1.1" xmlns="http://www.w3.org/2000/svg">
    <path d="M 100 100
             L 100 600
             L 1320 600
             M 100 100
             L 95 100
             M 100 200
             L 95 200
             M 100 300
             L 95 300
             M 100 400
             L 95 400
             M 100 500
             L 95 500
             M 100 600
             L 95 600
             M 160 600
             L 160 605
             M 260 600
             L 260 605
             M 360 600
             L 360 605
             M 460 600
             L 460 605
             M 560 600
             L 560 605
             M 660 600
             L 660 605
             M 760 600
             L 760 605
             M 860 600
             L 860 605
             M 960 600
             L 960 605
             M 1060 600
             L 1060 605
             M 1160 600
             L 1160 605
             M 1260 600
             L 1260 605
             "
    stroke="black" fill="transparent" stroke-width="1"
    />
    <text x="700" y="50" font-size="20" fill="black">华东地区手机销售情况</text>
    <text x="65" y="105" font-size="14" fill="black">500</text>
    <text x="65" y="205" font-size="14" fill="black">400</text>
    <text x="65" y="305" font-size="14" fill="black">300</text>
    <text x="65" y="405" font-size="14" fill="black">200</text>
    <text x="65" y="505" font-size="14" fill="black">100</text>
    <text x="80" y="605" font-size="14" fill="black">0</text>
    <text x="150" y="625" font-size="14" fill="black">1月</text>
    <text x="250" y="625" font-size="14" fill="black">2月</text>
    <text x="350" y="625" font-size="14" fill="black">3月</text>
    <text x="450" y="625" font-size="14" fill="black">4月</text>
    <text x="550" y="625" font-size="14" fill="black">5月</text>
    <text x="650" y="625" font-size="14" fill="black">6月</text>
    <text x="750" y="625" font-size="14" fill="black">7月</text>
    <text x="850" y="625" font-size="14" fill="black">8月</text>
    <text x="950" y="625" font-size="14" fill="black">9月</text>
    <text x="1050" y="625" font-size="14" fill="black">10月</text>
    <text x="1150" y="625" font-size="14" fill="black">11月</text>
    <text x="1250" y="625" font-size="14" fill="black">12月</text>
    <rect x="120"  y="480" width="80" height="120" fill="blue" fill-opacity="0.5" />
    <rect x="220"  y="500" width="80" height="100" fill="blue" fill-opacity="0.5" />
    <rect x="320"  y="460" width="80" height="140" fill="blue" fill-opacity="0.5" />
    <rect x="420"  y="440" width="80" height="160" fill="blue" fill-opacity="0.5" />
    <rect x="520"  y="420" width="80" height="180" fill="blue" fill-opacity="0.5" />
    <rect x="620"  y="415" width="80" height="185" fill="blue" fill-opacity="0.5" />
    <rect x="720"  y="410" width="80" height="190" fill="blue" fill-opacity="0.5" />
    <rect x="820"  y="390" width="80" height="210" fill="blue" fill-opacity="0.5" />
    <rect x="920"  y="370" width="80" height="230" fill="blue" fill-opacity="0.5" />
    <rect x="1020"  y="355" width="80" height="245" fill="blue" fill-opacity="0.5" />
    <rect x="1120"  y="345" width="80" height="255" fill="blue" fill-opacity="0.5" />
    <rect x="1220"  y="330" width="80" height="270" fill="blue" fill-opacity="0.5" />
</svg>