<?xml version="1.0" standalone="no"?>
<svg width="500" height="500" version="1.1" xmlns="http://www.w3.org/2000/svg">
    <line x1="10" x2="480" y1="10" y2="10" stroke="red" fill="no" stroke-width="3" />
    <rect x="10" y="30" width="470" height="45" stroke="orange" fill="transparent" stroke-width="3" />
    <circle cx="250" cy="130" r="30" stroke="yellow" fill="transparent" stroke-width="3" />
    <text x="250" y="200" font-size="16" text-anchor="middle" fill="green">SVG</text>
    <path d="
             M 250 325
             A 5 10 0 0 1 250 345
             M 250 325
             A 5 10 0 0 0 250 345
             M 250 325
             A 10 5 0 0 1 270 325
             M 250 325
             A 10 5 0 0 0 270 325
             M 250 325
             A 5 10 0 0 1 250 305
             M 250 325
             A 5 10 0 0 0 250 305
             M 250 325
             A 10 5 0 0 1 230 325
             M 250 325
             A 10 5 0 0 0 230 325
              "
             stroke="black" fill="green" stroke-width="2"    
    />
    <path d="M 250 490
             L 250 450
             L 225 425
             M 250 450
             L 275 425
             M 225 425
             L 215 400
             M 225 425
             L 235 400
             M 275 425
             L 260 400
             M 275 425
             L 290 400
        "
        stroke="black" fill="transparent" stroke-width="2"
    />
</svg>
